<?xml version="1.0" encoding="UTF-8"?>
<svg width="158px" height="128px" viewBox="0 0 158 128" version="1.1" xmlns="http://www.w3.org/2000/svg" xmlns:xlink="http://www.w3.org/1999/xlink">
    <!-- Generator: Sketch 53.2 (72643) - https://sketchapp.com -->
    <title>Artboard</title>
    <desc>Created with Sketch.</desc>
    <defs>
        <polygon id="path-1" points="0 0.021560559 62.3775326 0.021560559 62.3775326 58.673913 0 58.673913"></polygon>
    </defs>
    <g id="Artboard" stroke="none" stroke-width="1" fill="none" fill-rule="evenodd">
        <g id="picto-sol" opacity="0.15" transform="translate(11.000000, 9.000000)">
            <path d="M79.5032419,39.3149659 C65.4678584,46.1202354 57.5386488,76.0291561 67.3705274,92.2938344 C71.9153183,99.8124916 73.4994538,103.517052 75.1774429,105 C75.9624005,94.7036244 78.3769984,73.133476 85.3306991,60.6576167 C94.6989976,43.8452588 121.711778,31.5491507 121.711778,31.5491507 C105.017209,44.322723 86.7441916,69.6760733 86.7441916,69.6760733 C81.0760012,80.5678748 82.4752735,94.5042129 84.5628057,104.078775 C85.097487,103.932727 85.6520767,103.781062 86.2578592,103.626588 C107.073456,98.2649458 111.814487,92.5746957 127.246298,74.3187107 C142.680954,56.0627257 135.175508,0 135.175508,0 C135.175508,0 131.719988,13.9981276 79.5032419,39.3149659" id="Fill-1" fill="#FEFEFE"></path>
            <g id="Group-5" transform="translate(0.000000, 52.000000)">
                <mask id="mask-2" fill="white">
                    <use xlink:href="#path-1"></use>
                </mask>
                <g id="Clip-4"></g>
                <path d="M18.0662201,42.1513432 C20.5324647,52.3271661 39.4487283,61.8067935 51.8666332,57.6892935 C57.6072228,55.7854115 60.3335136,55.2767624 61.583413,54.387337 C54.7774728,52.3982065 40.6371114,47.7322748 33.2915054,41.3841071 C23.395769,32.8393711 19.1902908,13.3657842 19.1902908,13.3657842 C25.2692201,26.1388432 39.5689647,41.7478339 39.5689647,41.7478339 C46.0421576,47.0247127 55.6247201,48.1045264 62.3775326,48.1045264 C62.3579592,47.7322748 62.3411821,47.3458152 62.3272011,46.9280978 C61.8518478,32.5097438 58.7396821,28.5911568 48.7824293,15.8550388 C38.8279728,3.12460404 0,0.021560559 0,0.021560559 C0,0.021560559 8.89469837,4.29250776 18.0662201,42.1513432" id="Fill-3" fill="#FEFEFE" mask="url(#mask-2)"></path>
            </g>
        </g>
        <g id="littleOne-Copy-2" transform="translate(50.500000, 57.000000)">
            <ellipse id="Oval-Copy-6" fill="#FFFFFF" cx="31" cy="32" rx="16" ry="15"></ellipse>
            <circle id="Oval-Copy-7" stroke="#FFFFFF" cx="31" cy="31" r="31"></circle>
        </g>
    </g>
</svg>